
<region>
sample=../Samples/vowel_transition/i/vowel_i_f3_frome3.wav
lokey=51
hikey=51
sw_previous=50
pitch_keycenter=53

<region>
sample=../Samples/vowel_transition/i/vowel_i_gb3_frome3.wav
lokey=52
hikey=52
sw_previous=50
pitch_keycenter=54

<region>
sample=../Samples/vowel_transition/i/vowel_i_g3_frome3.wav
lokey=53
hikey=53
sw_previous=50
pitch_keycenter=55

<region>
sample=../Samples/vowel_transition/i/vowel_i_ab3_frome3.wav
lokey=54
hikey=54
sw_previous=50
pitch_keycenter=56

<region>
sample=../Samples/vowel_transition/i/vowel_i_a3_frome3.wav
lokey=55
hikey=55
sw_previous=50
pitch_keycenter=57

<region>
sample=../Samples/vowel_transition/i/vowel_i_bb3_frome3.wav
lokey=56
hikey=56
sw_previous=50
pitch_keycenter=58

<region>
sample=../Samples/vowel_transition/i/vowel_i_b3_frome3.wav
lokey=57
hikey=57
sw_previous=50
pitch_keycenter=59

<region>
sample=../Samples/vowel_transition/i/vowel_i_c4_frome3.wav
lokey=58
hikey=58
sw_previous=50

<region>
sample=../Samples/vowel_transition/i/vowel_i_db4_frome3.wav
lokey=59
hikey=59
sw_previous=50
pitch_keycenter=61

<region>
sample=../Samples/vowel_transition/i/vowel_i_d4_frome3.wav
lokey=60
hikey=60
sw_previous=50
pitch_keycenter=62

<region>
sample=../Samples/vowel_transition/i/vowel_i_eb4_frome3.wav
lokey=61
hikey=61
sw_previous=50
pitch_keycenter=63

<region>
sample=../Samples/vowel_transition/i/vowel_i_e4_frome3.wav
lokey=62
hikey=62
sw_previous=50
pitch_keycenter=64

<region>
sample=../Samples/vowel_transition/i/vowel_i_f4_fromf3.wav
lokey=63
hikey=63
sw_previous=50
pitch_keycenter=65

<region>
sample=../Samples/vowel_transition/i/vowel_i_gb4_fromgb3.wav
lokey=64
hikey=64
sw_previous=50
pitch_keycenter=66

<region>
sample=../Samples/vowel_transition/i/vowel_i_g4_fromg3.wav
lokey=65
hikey=65
sw_previous=50
pitch_keycenter=67

<region>
sample=../Samples/vowel_transition/i/vowel_i_ab4_fromab3.wav
lokey=66
hikey=66
sw_previous=50
pitch_keycenter=68

<region>
sample=../Samples/vowel_transition/i/vowel_i_a4_froma3.wav
lokey=67
hikey=67
sw_previous=50
pitch_keycenter=69

<region>
sample=../Samples/vowel_transition/i/vowel_i_bb4_frombb3.wav
lokey=68
hikey=68
sw_previous=50
pitch_keycenter=70

<region>
sample=../Samples/vowel_transition/i/vowel_i_ab4_fromab3.wav
lokey=69
hikey=69
sw_previous=50
pitch_keycenter=68

<region>
sample=../Samples/vowel_transition/i/vowel_i_a4_froma3.wav
lokey=70
hikey=70
sw_previous=50
pitch_keycenter=69

<region>
sample=../Samples/vowel_transition/i/vowel_i_e3_fromf3.wav
lokey=50
hikey=50
sw_previous=51
pitch_keycenter=52

<region>
sample=../Samples/vowel_transition/i/vowel_i_gb3_fromf3.wav
lokey=52
hikey=52
sw_previous=51
pitch_keycenter=54

<region>
sample=../Samples/vowel_transition/i/vowel_i_g3_fromf3.wav
lokey=53
hikey=53
sw_previous=51
pitch_keycenter=55

<region>
sample=../Samples/vowel_transition/i/vowel_i_ab3_fromf3.wav
lokey=54
hikey=54
sw_previous=51
pitch_keycenter=56

<region>
sample=../Samples/vowel_transition/i/vowel_i_a3_fromf3.wav
lokey=55
hikey=55
sw_previous=51
pitch_keycenter=57

<region>
sample=../Samples/vowel_transition/i/vowel_i_bb3_fromf3.wav
lokey=56
hikey=56
sw_previous=51
pitch_keycenter=58

<region>
sample=../Samples/vowel_transition/i/vowel_i_b3_fromf3.wav
lokey=57
hikey=57
sw_previous=51
pitch_keycenter=59

<region>
sample=../Samples/vowel_transition/i/vowel_i_c4_fromf3.wav
lokey=58
hikey=58
sw_previous=51

<region>
sample=../Samples/vowel_transition/i/vowel_i_db4_fromf3.wav
lokey=59
hikey=59
sw_previous=51
pitch_keycenter=61

<region>
sample=../Samples/vowel_transition/i/vowel_i_d4_fromf3.wav
lokey=60
hikey=60
sw_previous=51
pitch_keycenter=62

<region>
sample=../Samples/vowel_transition/i/vowel_i_eb4_fromf3.wav
lokey=61
hikey=61
sw_previous=51
pitch_keycenter=63

<region>
sample=../Samples/vowel_transition/i/vowel_i_e4_fromf3.wav
lokey=62
hikey=62
sw_previous=51
pitch_keycenter=64

<region>
sample=../Samples/vowel_transition/i/vowel_i_f4_fromf3.wav
lokey=63
hikey=63
sw_previous=51
pitch_keycenter=65

<region>
sample=../Samples/vowel_transition/i/vowel_i_gb4_fromgb3.wav
lokey=64
hikey=64
sw_previous=51
pitch_keycenter=66

<region>
sample=../Samples/vowel_transition/i/vowel_i_g4_fromg3.wav
lokey=65
hikey=65
sw_previous=51
pitch_keycenter=67

<region>
sample=../Samples/vowel_transition/i/vowel_i_ab4_fromab3.wav
lokey=66
hikey=66
sw_previous=51
pitch_keycenter=68

<region>
sample=../Samples/vowel_transition/i/vowel_i_a4_froma3.wav
lokey=67
hikey=67
sw_previous=51
pitch_keycenter=69

<region>
sample=../Samples/vowel_transition/i/vowel_i_bb4_frombb3.wav
lokey=68
hikey=68
sw_previous=51
pitch_keycenter=70

<region>
sample=../Samples/vowel_transition/i/vowel_i_ab4_fromab3.wav
lokey=69
hikey=69
sw_previous=51
pitch_keycenter=68

<region>
sample=../Samples/vowel_transition/i/vowel_i_a4_froma3.wav
lokey=70
hikey=70
sw_previous=51
pitch_keycenter=69

<region>
sample=../Samples/vowel_transition/i/vowel_i_e3_fromgb3.wav
lokey=50
hikey=50
sw_previous=52
pitch_keycenter=52

<region>
sample=../Samples/vowel_transition/i/vowel_i_f3_fromgb3.wav
lokey=51
hikey=51
sw_previous=52
pitch_keycenter=53

<region>
sample=../Samples/vowel_transition/i/vowel_i_g3_fromgb3.wav
lokey=53
hikey=53
sw_previous=52
pitch_keycenter=55

<region>
sample=../Samples/vowel_transition/i/vowel_i_ab3_fromgb3.wav
lokey=54
hikey=54
sw_previous=52
pitch_keycenter=56

<region>
sample=../Samples/vowel_transition/i/vowel_i_a3_fromgb3.wav
lokey=55
hikey=55
sw_previous=52
pitch_keycenter=57

<region>
sample=../Samples/vowel_transition/i/vowel_i_bb3_fromgb3.wav
lokey=56
hikey=56
sw_previous=52
pitch_keycenter=58

<region>
sample=../Samples/vowel_transition/i/vowel_i_b3_fromgb3.wav
lokey=57
hikey=57
sw_previous=52
pitch_keycenter=59

<region>
sample=../Samples/vowel_transition/i/vowel_i_c4_fromgb3.wav
lokey=58
hikey=58
sw_previous=52

<region>
sample=../Samples/vowel_transition/i/vowel_i_db4_fromgb3.wav
lokey=59
hikey=59
sw_previous=52
pitch_keycenter=61

<region>
sample=../Samples/vowel_transition/i/vowel_i_d4_fromgb3.wav
lokey=60
hikey=60
sw_previous=52
pitch_keycenter=62

<region>
sample=../Samples/vowel_transition/i/vowel_i_eb4_fromgb3.wav
lokey=61
hikey=61
sw_previous=52
pitch_keycenter=63

<region>
sample=../Samples/vowel_transition/i/vowel_i_e4_fromgb3.wav
lokey=62
hikey=62
sw_previous=52
pitch_keycenter=64

<region>
sample=../Samples/vowel_transition/i/vowel_i_f4_fromgb3.wav
lokey=63
hikey=63
sw_previous=52
pitch_keycenter=65

<region>
sample=../Samples/vowel_transition/i/vowel_i_gb4_fromgb3.wav
lokey=64
hikey=64
sw_previous=52
pitch_keycenter=66

<region>
sample=../Samples/vowel_transition/i/vowel_i_g4_fromg3.wav
lokey=65
hikey=65
sw_previous=52
pitch_keycenter=67

<region>
sample=../Samples/vowel_transition/i/vowel_i_ab4_fromab3.wav
lokey=66
hikey=66
sw_previous=52
pitch_keycenter=68

<region>
sample=../Samples/vowel_transition/i/vowel_i_a4_froma3.wav
lokey=67
hikey=67
sw_previous=52
pitch_keycenter=69

<region>
sample=../Samples/vowel_transition/i/vowel_i_bb4_frombb3.wav
lokey=68
hikey=68
sw_previous=52
pitch_keycenter=70

<region>
sample=../Samples/vowel_transition/i/vowel_i_ab4_fromab3.wav
lokey=69
hikey=69
sw_previous=52
pitch_keycenter=68

<region>
sample=../Samples/vowel_transition/i/vowel_i_a4_froma3.wav
lokey=70
hikey=70
sw_previous=52
pitch_keycenter=69

<region>
sample=../Samples/vowel_transition/i/vowel_i_e3_fromg3.wav
lokey=50
hikey=50
sw_previous=53
pitch_keycenter=52

<region>
sample=../Samples/vowel_transition/i/vowel_i_f3_fromg3.wav
lokey=51
hikey=51
sw_previous=53
pitch_keycenter=53

<region>
sample=../Samples/vowel_transition/i/vowel_i_gb3_fromg3.wav
lokey=52
hikey=52
sw_previous=53
pitch_keycenter=54

<region>
sample=../Samples/vowel_transition/i/vowel_i_ab3_fromg3.wav
lokey=54
hikey=54
sw_previous=53
pitch_keycenter=56

<region>
sample=../Samples/vowel_transition/i/vowel_i_a3_fromg3.wav
lokey=55
hikey=55
sw_previous=53
pitch_keycenter=57

<region>
sample=../Samples/vowel_transition/i/vowel_i_bb3_fromg3.wav
lokey=56
hikey=56
sw_previous=53
pitch_keycenter=58

<region>
sample=../Samples/vowel_transition/i/vowel_i_b3_fromg3.wav
lokey=57
hikey=57
sw_previous=53
pitch_keycenter=59

<region>
sample=../Samples/vowel_transition/i/vowel_i_c4_fromg3.wav
lokey=58
hikey=58
sw_previous=53

<region>
sample=../Samples/vowel_transition/i/vowel_i_db4_fromg3.wav
lokey=59
hikey=59
sw_previous=53
pitch_keycenter=61

<region>
sample=../Samples/vowel_transition/i/vowel_i_d4_fromg3.wav
lokey=60
hikey=60
sw_previous=53
pitch_keycenter=62

<region>
sample=../Samples/vowel_transition/i/vowel_i_eb4_fromg3.wav
lokey=61
hikey=61
sw_previous=53
pitch_keycenter=63

<region>
sample=../Samples/vowel_transition/i/vowel_i_e4_fromg3.wav
lokey=62
hikey=62
sw_previous=53
pitch_keycenter=64

<region>
sample=../Samples/vowel_transition/i/vowel_i_f4_fromg3.wav
lokey=63
hikey=63
sw_previous=53
pitch_keycenter=65

<region>
sample=../Samples/vowel_transition/i/vowel_i_gb4_fromg3.wav
lokey=64
hikey=64
sw_previous=53
pitch_keycenter=66

<region>
sample=../Samples/vowel_transition/i/vowel_i_g4_fromg3.wav
lokey=65
hikey=65
sw_previous=53
pitch_keycenter=67

<region>
sample=../Samples/vowel_transition/i/vowel_i_ab4_fromab3.wav
lokey=66
hikey=66
sw_previous=53
pitch_keycenter=68

<region>
sample=../Samples/vowel_transition/i/vowel_i_a4_froma3.wav
lokey=67
hikey=67
sw_previous=53
pitch_keycenter=69

<region>
sample=../Samples/vowel_transition/i/vowel_i_bb4_frombb3.wav
lokey=68
hikey=68
sw_previous=53
pitch_keycenter=70

<region>
sample=../Samples/vowel_transition/i/vowel_i_ab4_fromab3.wav
lokey=69
hikey=69
sw_previous=53
pitch_keycenter=68

<region>
sample=../Samples/vowel_transition/i/vowel_i_a4_froma3.wav
lokey=70
hikey=70
sw_previous=53
pitch_keycenter=69

<region>
sample=../Samples/vowel_transition/i/vowel_i_e3_fromab3.wav
lokey=50
hikey=50
sw_previous=54
pitch_keycenter=52

<region>
sample=../Samples/vowel_transition/i/vowel_i_f3_fromab3.wav
lokey=51
hikey=51
sw_previous=54
pitch_keycenter=53

<region>
sample=../Samples/vowel_transition/i/vowel_i_gb3_fromab3.wav
lokey=52
hikey=52
sw_previous=54
pitch_keycenter=54

<region>
sample=../Samples/vowel_transition/i/vowel_i_g3_fromab3.wav
lokey=53
hikey=53
sw_previous=54
pitch_keycenter=55

<region>
sample=../Samples/vowel_transition/i/vowel_i_a3_fromab3.wav
lokey=55
hikey=55
sw_previous=54
pitch_keycenter=57

<region>
sample=../Samples/vowel_transition/i/vowel_i_bb3_fromab3.wav
lokey=56
hikey=56
sw_previous=54
pitch_keycenter=58

<region>
sample=../Samples/vowel_transition/i/vowel_i_b3_fromab3.wav
lokey=57
hikey=57
sw_previous=54
pitch_keycenter=59

<region>
sample=../Samples/vowel_transition/i/vowel_i_c4_fromab3.wav
lokey=58
hikey=58
sw_previous=54

<region>
sample=../Samples/vowel_transition/i/vowel_i_db4_fromab3.wav
lokey=59
hikey=59
sw_previous=54
pitch_keycenter=61

<region>
sample=../Samples/vowel_transition/i/vowel_i_d4_fromab3.wav
lokey=60
hikey=60
sw_previous=54
pitch_keycenter=62

<region>
sample=../Samples/vowel_transition/i/vowel_i_eb4_fromab3.wav
lokey=61
hikey=61
sw_previous=54
pitch_keycenter=63

<region>
sample=../Samples/vowel_transition/i/vowel_i_e4_fromab3.wav
lokey=62
hikey=62
sw_previous=54
pitch_keycenter=64

<region>
sample=../Samples/vowel_transition/i/vowel_i_f4_fromab3.wav
lokey=63
hikey=63
sw_previous=54
pitch_keycenter=65

<region>
sample=../Samples/vowel_transition/i/vowel_i_gb4_fromab3.wav
lokey=64
hikey=64
sw_previous=54
pitch_keycenter=66

<region>
sample=../Samples/vowel_transition/i/vowel_i_g4_fromab3.wav
lokey=65
hikey=65
sw_previous=54
pitch_keycenter=67

<region>
sample=../Samples/vowel_transition/i/vowel_i_ab4_fromab3.wav
lokey=66
hikey=66
sw_previous=54
pitch_keycenter=68

<region>
sample=../Samples/vowel_transition/i/vowel_i_a4_froma3.wav
lokey=67
hikey=67
sw_previous=54
pitch_keycenter=69

<region>
sample=../Samples/vowel_transition/i/vowel_i_bb4_frombb3.wav
lokey=68
hikey=68
sw_previous=54
pitch_keycenter=70

<region>
sample=../Samples/vowel_transition/i/vowel_i_ab4_fromab3.wav
lokey=69
hikey=69
sw_previous=54
pitch_keycenter=68

<region>
sample=../Samples/vowel_transition/i/vowel_i_a4_froma3.wav
lokey=70
hikey=70
sw_previous=54
pitch_keycenter=69

<region>
sample=../Samples/vowel_transition/i/vowel_i_e3_froma3.wav
lokey=50
hikey=50
sw_previous=55
pitch_keycenter=52

<region>
sample=../Samples/vowel_transition/i/vowel_i_f3_froma3.wav
lokey=51
hikey=51
sw_previous=55
pitch_keycenter=53

<region>
sample=../Samples/vowel_transition/i/vowel_i_gb3_froma3.wav
lokey=52
hikey=52
sw_previous=55
pitch_keycenter=54

<region>
sample=../Samples/vowel_transition/i/vowel_i_g3_froma3.wav
lokey=53
hikey=53
sw_previous=55
pitch_keycenter=55

<region>
sample=../Samples/vowel_transition/i/vowel_i_ab3_froma3.wav
lokey=54
hikey=54
sw_previous=55
pitch_keycenter=56

<region>
sample=../Samples/vowel_transition/i/vowel_i_bb3_froma3.wav
lokey=56
hikey=56
sw_previous=55
pitch_keycenter=58

<region>
sample=../Samples/vowel_transition/i/vowel_i_b3_froma3.wav
lokey=57
hikey=57
sw_previous=55
pitch_keycenter=59

<region>
sample=../Samples/vowel_transition/i/vowel_i_c4_froma3.wav
lokey=58
hikey=58
sw_previous=55

<region>
sample=../Samples/vowel_transition/i/vowel_i_db4_froma3.wav
lokey=59
hikey=59
sw_previous=55
pitch_keycenter=61

<region>
sample=../Samples/vowel_transition/i/vowel_i_d4_froma3.wav
lokey=60
hikey=60
sw_previous=55
pitch_keycenter=62

<region>
sample=../Samples/vowel_transition/i/vowel_i_eb4_froma3.wav
lokey=61
hikey=61
sw_previous=55
pitch_keycenter=63

<region>
sample=../Samples/vowel_transition/i/vowel_i_e4_froma3.wav
lokey=62
hikey=62
sw_previous=55
pitch_keycenter=64

<region>
sample=../Samples/vowel_transition/i/vowel_i_f4_froma3.wav
lokey=63
hikey=63
sw_previous=55
pitch_keycenter=65

<region>
sample=../Samples/vowel_transition/i/vowel_i_gb4_froma3.wav
lokey=64
hikey=64
sw_previous=55
pitch_keycenter=66

<region>
sample=../Samples/vowel_transition/i/vowel_i_g4_froma3.wav
lokey=65
hikey=65
sw_previous=55
pitch_keycenter=67

<region>
sample=../Samples/vowel_transition/i/vowel_i_ab4_froma3.wav
lokey=66
hikey=66
sw_previous=55
pitch_keycenter=68

<region>
sample=../Samples/vowel_transition/i/vowel_i_a4_froma3.wav
lokey=67
hikey=67
sw_previous=55
pitch_keycenter=69

<region>
sample=../Samples/vowel_transition/i/vowel_i_bb4_frombb3.wav
lokey=68
hikey=68
sw_previous=55
pitch_keycenter=70

<region>
sample=../Samples/vowel_transition/i/vowel_i_ab4_fromab3.wav
lokey=69
hikey=69
sw_previous=55
pitch_keycenter=68

<region>
sample=../Samples/vowel_transition/i/vowel_i_a4_froma3.wav
lokey=70
hikey=70
sw_previous=55
pitch_keycenter=69

<region>
sample=../Samples/vowel_transition/i/vowel_i_e3_frombb3.wav
lokey=50
hikey=50
sw_previous=56
pitch_keycenter=52

<region>
sample=../Samples/vowel_transition/i/vowel_i_f3_frombb3.wav
lokey=51
hikey=51
sw_previous=56
pitch_keycenter=53

<region>
sample=../Samples/vowel_transition/i/vowel_i_gb3_frombb3.wav
lokey=52
hikey=52
sw_previous=56
pitch_keycenter=54

<region>
sample=../Samples/vowel_transition/i/vowel_i_g3_frombb3.wav
lokey=53
hikey=53
sw_previous=56
pitch_keycenter=55

<region>
sample=../Samples/vowel_transition/i/vowel_i_ab3_frombb3.wav
lokey=54
hikey=54
sw_previous=56
pitch_keycenter=56

<region>
sample=../Samples/vowel_transition/i/vowel_i_a3_frombb3.wav
lokey=55
hikey=55
sw_previous=56
pitch_keycenter=57

<region>
sample=../Samples/vowel_transition/i/vowel_i_b3_frombb3.wav
lokey=57
hikey=57
sw_previous=56
pitch_keycenter=59

<region>
sample=../Samples/vowel_transition/i/vowel_i_c4_frombb3.wav
lokey=58
hikey=58
sw_previous=56

<region>
sample=../Samples/vowel_transition/i/vowel_i_db4_frombb3.wav
lokey=59
hikey=59
sw_previous=56
pitch_keycenter=61

<region>
sample=../Samples/vowel_transition/i/vowel_i_d4_frombb3.wav
lokey=60
hikey=60
sw_previous=56
pitch_keycenter=62

<region>
sample=../Samples/vowel_transition/i/vowel_i_eb4_frombb3.wav
lokey=61
hikey=61
sw_previous=56
pitch_keycenter=63

<region>
sample=../Samples/vowel_transition/i/vowel_i_e4_frombb3.wav
lokey=62
hikey=62
sw_previous=56
pitch_keycenter=64

<region>
sample=../Samples/vowel_transition/i/vowel_i_f4_frombb3.wav
lokey=63
hikey=63
sw_previous=56
pitch_keycenter=65

<region>
sample=../Samples/vowel_transition/i/vowel_i_gb4_frombb3.wav
lokey=64
hikey=64
sw_previous=56
pitch_keycenter=66

<region>
sample=../Samples/vowel_transition/i/vowel_i_g4_frombb3.wav
lokey=65
hikey=65
sw_previous=56
pitch_keycenter=67

<region>
sample=../Samples/vowel_transition/i/vowel_i_ab4_frombb3.wav
lokey=66
hikey=66
sw_previous=56
pitch_keycenter=68

<region>
sample=../Samples/vowel_transition/i/vowel_i_a4_frombb3.wav
lokey=67
hikey=67
sw_previous=56
pitch_keycenter=69

<region>
sample=../Samples/vowel_transition/i/vowel_i_bb4_frombb3.wav
lokey=68
hikey=68
sw_previous=56
pitch_keycenter=70

<region>
sample=../Samples/vowel_transition/i/vowel_i_ab4_fromab3.wav
lokey=69
hikey=69
sw_previous=56
pitch_keycenter=68

<region>
sample=../Samples/vowel_transition/i/vowel_i_a4_froma3.wav
lokey=70
hikey=70
sw_previous=56
pitch_keycenter=69

<region>
sample=../Samples/vowel_transition/i/vowel_i_e3_fromb3.wav
lokey=50
hikey=50
sw_previous=57
pitch_keycenter=52

<region>
sample=../Samples/vowel_transition/i/vowel_i_f3_fromb3.wav
lokey=51
hikey=51
sw_previous=57
pitch_keycenter=53

<region>
sample=../Samples/vowel_transition/i/vowel_i_gb3_fromb3.wav
lokey=52
hikey=52
sw_previous=57
pitch_keycenter=54

<region>
sample=../Samples/vowel_transition/i/vowel_i_g3_fromb3.wav
lokey=53
hikey=53
sw_previous=57
pitch_keycenter=55

<region>
sample=../Samples/vowel_transition/i/vowel_i_ab3_fromb3.wav
lokey=54
hikey=54
sw_previous=57
pitch_keycenter=56

<region>
sample=../Samples/vowel_transition/i/vowel_i_a3_fromb3.wav
lokey=55
hikey=55
sw_previous=57
pitch_keycenter=57

<region>
sample=../Samples/vowel_transition/i/vowel_i_bb3_fromb3.wav
lokey=56
hikey=56
sw_previous=57
pitch_keycenter=58

<region>
sample=../Samples/vowel_transition/i/vowel_i_c4_fromb3.wav
lokey=58
hikey=58
sw_previous=57

<region>
sample=../Samples/vowel_transition/i/vowel_i_db4_fromb3.wav
lokey=59
hikey=59
sw_previous=57
pitch_keycenter=61

<region>
sample=../Samples/vowel_transition/i/vowel_i_d4_fromb3.wav
lokey=60
hikey=60
sw_previous=57
pitch_keycenter=62

<region>
sample=../Samples/vowel_transition/i/vowel_i_eb4_fromb3.wav
lokey=61
hikey=61
sw_previous=57
pitch_keycenter=63

<region>
sample=../Samples/vowel_transition/i/vowel_i_e4_fromb3.wav
lokey=62
hikey=62
sw_previous=57
pitch_keycenter=64

<region>
sample=../Samples/vowel_transition/i/vowel_i_f4_fromb3.wav
lokey=63
hikey=63
sw_previous=57
pitch_keycenter=65

<region>
sample=../Samples/vowel_transition/i/vowel_i_gb4_fromb3.wav
lokey=64
hikey=64
sw_previous=57
pitch_keycenter=66

<region>
sample=../Samples/vowel_transition/i/vowel_i_g4_fromb3.wav
lokey=65
hikey=65
sw_previous=57
pitch_keycenter=67

<region>
sample=../Samples/vowel_transition/i/vowel_i_ab4_fromb3.wav
lokey=66
hikey=66
sw_previous=57
pitch_keycenter=68

<region>
sample=../Samples/vowel_transition/i/vowel_i_a4_fromb3.wav
lokey=67
hikey=67
sw_previous=57
pitch_keycenter=69

<region>
sample=../Samples/vowel_transition/i/vowel_i_bb4_fromb3.wav
lokey=68
hikey=68
sw_previous=57
pitch_keycenter=70

<region>
sample=../Samples/vowel_transition/i/vowel_i_ab4_fromab3.wav
lokey=69
hikey=69
sw_previous=57
pitch_keycenter=68

<region>
sample=../Samples/vowel_transition/i/vowel_i_a4_froma3.wav
lokey=70
hikey=70
sw_previous=57
pitch_keycenter=69

<region>
sample=../Samples/vowel_transition/i/vowel_i_e3_fromc4.wav
lokey=50
hikey=50
sw_previous=58
pitch_keycenter=52

<region>
sample=../Samples/vowel_transition/i/vowel_i_f3_fromc4.wav
lokey=51
hikey=51
sw_previous=58
pitch_keycenter=53

<region>
sample=../Samples/vowel_transition/i/vowel_i_gb3_fromc4.wav
lokey=52
hikey=52
sw_previous=58
pitch_keycenter=54

<region>
sample=../Samples/vowel_transition/i/vowel_i_g3_fromc4.wav
lokey=53
hikey=53
sw_previous=58
pitch_keycenter=55

<region>
sample=../Samples/vowel_transition/i/vowel_i_ab3_fromc4.wav
lokey=54
hikey=54
sw_previous=58
pitch_keycenter=56

<region>
sample=../Samples/vowel_transition/i/vowel_i_a3_fromc4.wav
lokey=55
hikey=55
sw_previous=58
pitch_keycenter=57

<region>
sample=../Samples/vowel_transition/i/vowel_i_bb3_fromc4.wav
lokey=56
hikey=56
sw_previous=58
pitch_keycenter=58

<region>
sample=../Samples/vowel_transition/i/vowel_i_b3_fromc4.wav
lokey=57
hikey=57
sw_previous=58
pitch_keycenter=59

<region>
sample=../Samples/vowel_transition/i/vowel_i_db4_fromc4.wav
lokey=59
hikey=59
sw_previous=58
pitch_keycenter=61

<region>
sample=../Samples/vowel_transition/i/vowel_i_d4_fromc4.wav
lokey=60
hikey=60
sw_previous=58
pitch_keycenter=62

<region>
sample=../Samples/vowel_transition/i/vowel_i_eb4_fromc4.wav
lokey=61
hikey=61
sw_previous=58
pitch_keycenter=63

<region>
sample=../Samples/vowel_transition/i/vowel_i_e4_fromc4.wav
lokey=62
hikey=62
sw_previous=58
pitch_keycenter=64

<region>
sample=../Samples/vowel_transition/i/vowel_i_f4_fromc4.wav
lokey=63
hikey=63
sw_previous=58
pitch_keycenter=65

<region>
sample=../Samples/vowel_transition/i/vowel_i_gb4_fromc4.wav
lokey=64
hikey=64
sw_previous=58
pitch_keycenter=66

<region>
sample=../Samples/vowel_transition/i/vowel_i_g4_fromc4.wav
lokey=65
hikey=65
sw_previous=58
pitch_keycenter=67

<region>
sample=../Samples/vowel_transition/i/vowel_i_ab4_fromc4.wav
lokey=66
hikey=66
sw_previous=58
pitch_keycenter=68

<region>
sample=../Samples/vowel_transition/i/vowel_i_a4_fromc4.wav
lokey=67
hikey=67
sw_previous=58
pitch_keycenter=69

<region>
sample=../Samples/vowel_transition/i/vowel_i_bb4_fromc4.wav
lokey=68
hikey=68
sw_previous=58
pitch_keycenter=70

<region>
sample=../Samples/vowel_transition/i/vowel_i_ab4_froma3.wav
lokey=69
hikey=69
sw_previous=58
pitch_keycenter=68

<region>
sample=../Samples/vowel_transition/i/vowel_i_a4_froma3.wav
lokey=70
hikey=70
sw_previous=58
pitch_keycenter=69

<region>
sample=../Samples/vowel_transition/i/vowel_i_e3_fromdb4.wav
lokey=50
hikey=50
sw_previous=59
pitch_keycenter=52

<region>
sample=../Samples/vowel_transition/i/vowel_i_f3_fromdb4.wav
lokey=51
hikey=51
sw_previous=59
pitch_keycenter=53

<region>
sample=../Samples/vowel_transition/i/vowel_i_gb3_fromdb4.wav
lokey=52
hikey=52
sw_previous=59
pitch_keycenter=54

<region>
sample=../Samples/vowel_transition/i/vowel_i_g3_fromdb4.wav
lokey=53
hikey=53
sw_previous=59
pitch_keycenter=55

<region>
sample=../Samples/vowel_transition/i/vowel_i_ab3_fromdb4.wav
lokey=54
hikey=54
sw_previous=59
pitch_keycenter=56

<region>
sample=../Samples/vowel_transition/i/vowel_i_a3_fromdb4.wav
lokey=55
hikey=55
sw_previous=59
pitch_keycenter=57

<region>
sample=../Samples/vowel_transition/i/vowel_i_bb3_fromdb4.wav
lokey=56
hikey=56
sw_previous=59
pitch_keycenter=58

<region>
sample=../Samples/vowel_transition/i/vowel_i_b3_fromdb4.wav
lokey=57
hikey=57
sw_previous=59
pitch_keycenter=59

<region>
sample=../Samples/vowel_transition/i/vowel_i_c4_fromdb4.wav
lokey=58
hikey=58
sw_previous=59

<region>
sample=../Samples/vowel_transition/i/vowel_i_d4_fromdb4.wav
lokey=60
hikey=60
sw_previous=59
pitch_keycenter=62

<region>
sample=../Samples/vowel_transition/i/vowel_i_eb4_fromdb4.wav
lokey=61
hikey=61
sw_previous=59
pitch_keycenter=63

<region>
sample=../Samples/vowel_transition/i/vowel_i_e4_fromdb4.wav
lokey=62
hikey=62
sw_previous=59
pitch_keycenter=64

<region>
sample=../Samples/vowel_transition/i/vowel_i_f4_fromdb4.wav
lokey=63
hikey=63
sw_previous=59
pitch_keycenter=65

<region>
sample=../Samples/vowel_transition/i/vowel_i_gb4_fromdb4.wav
lokey=64
hikey=64
sw_previous=59
pitch_keycenter=66

<region>
sample=../Samples/vowel_transition/i/vowel_i_g4_fromdb4.wav
lokey=65
hikey=65
sw_previous=59
pitch_keycenter=67

<region>
sample=../Samples/vowel_transition/i/vowel_i_ab4_fromdb4.wav
lokey=66
hikey=66
sw_previous=59
pitch_keycenter=68

<region>
sample=../Samples/vowel_transition/i/vowel_i_a4_fromdb4.wav
lokey=67
hikey=67
sw_previous=59
pitch_keycenter=69

<region>
sample=../Samples/vowel_transition/i/vowel_i_bb4_fromdb4.wav
lokey=68
hikey=68
sw_previous=59
pitch_keycenter=70

<region>
sample=../Samples/vowel_transition/i/vowel_i_ab4_frombb3.wav
lokey=69
hikey=69
sw_previous=59
pitch_keycenter=68

<region>
sample=../Samples/vowel_transition/i/vowel_i_a4_frombb3.wav
lokey=70
hikey=70
sw_previous=59
pitch_keycenter=69

<region>
sample=../Samples/vowel_transition/i/vowel_i_e3_fromd4.wav
lokey=50
hikey=50
sw_previous=60
pitch_keycenter=52

<region>
sample=../Samples/vowel_transition/i/vowel_i_f3_fromd4.wav
lokey=51
hikey=51
sw_previous=60
pitch_keycenter=53

<region>
sample=../Samples/vowel_transition/i/vowel_i_gb3_fromd4.wav
lokey=52
hikey=52
sw_previous=60
pitch_keycenter=54

<region>
sample=../Samples/vowel_transition/i/vowel_i_g3_fromd4.wav
lokey=53
hikey=53
sw_previous=60
pitch_keycenter=55

<region>
sample=../Samples/vowel_transition/i/vowel_i_ab3_fromd4.wav
lokey=54
hikey=54
sw_previous=60
pitch_keycenter=56

<region>
sample=../Samples/vowel_transition/i/vowel_i_a3_fromd4.wav
lokey=55
hikey=55
sw_previous=60
pitch_keycenter=57

<region>
sample=../Samples/vowel_transition/i/vowel_i_bb3_fromd4.wav
lokey=56
hikey=56
sw_previous=60
pitch_keycenter=58

<region>
sample=../Samples/vowel_transition/i/vowel_i_b3_fromd4.wav
lokey=57
hikey=57
sw_previous=60
pitch_keycenter=59

<region>
sample=../Samples/vowel_transition/i/vowel_i_c4_fromd4.wav
lokey=58
hikey=58
sw_previous=60

<region>
sample=../Samples/vowel_transition/i/vowel_i_db4_fromd4.wav
lokey=59
hikey=59
sw_previous=60
pitch_keycenter=61

<region>
sample=../Samples/vowel_transition/i/vowel_i_eb4_fromd4.wav
lokey=61
hikey=61
sw_previous=60
pitch_keycenter=63

<region>
sample=../Samples/vowel_transition/i/vowel_i_e4_fromd4.wav
lokey=62
hikey=62
sw_previous=60
pitch_keycenter=64

<region>
sample=../Samples/vowel_transition/i/vowel_i_f4_fromd4.wav
lokey=63
hikey=63
sw_previous=60
pitch_keycenter=65

<region>
sample=../Samples/vowel_transition/i/vowel_i_gb4_fromd4.wav
lokey=64
hikey=64
sw_previous=60
pitch_keycenter=66

<region>
sample=../Samples/vowel_transition/i/vowel_i_g4_fromd4.wav
lokey=65
hikey=65
sw_previous=60
pitch_keycenter=67

<region>
sample=../Samples/vowel_transition/i/vowel_i_ab4_fromd4.wav
lokey=66
hikey=66
sw_previous=60
pitch_keycenter=68

<region>
sample=../Samples/vowel_transition/i/vowel_i_a4_fromd4.wav
lokey=67
hikey=67
sw_previous=60
pitch_keycenter=69

<region>
sample=../Samples/vowel_transition/i/vowel_i_bb4_fromd4.wav
lokey=68
hikey=68
sw_previous=60
pitch_keycenter=70

<region>
sample=../Samples/vowel_transition/i/vowel_i_ab4_fromb3.wav
lokey=69
hikey=69
sw_previous=60
pitch_keycenter=68

<region>
sample=../Samples/vowel_transition/i/vowel_i_a4_fromb3.wav
lokey=70
hikey=70
sw_previous=60
pitch_keycenter=69

<region>
sample=../Samples/vowel_transition/i/vowel_i_e3_fromeb4.wav
lokey=50
hikey=50
sw_previous=61
pitch_keycenter=52

<region>
sample=../Samples/vowel_transition/i/vowel_i_f3_fromeb4.wav
lokey=51
hikey=51
sw_previous=61
pitch_keycenter=53

<region>
sample=../Samples/vowel_transition/i/vowel_i_gb3_fromeb4.wav
lokey=52
hikey=52
sw_previous=61
pitch_keycenter=54

<region>
sample=../Samples/vowel_transition/i/vowel_i_g3_fromeb4.wav
lokey=53
hikey=53
sw_previous=61
pitch_keycenter=55

<region>
sample=../Samples/vowel_transition/i/vowel_i_ab3_fromeb4.wav
lokey=54
hikey=54
sw_previous=61
pitch_keycenter=56

<region>
sample=../Samples/vowel_transition/i/vowel_i_a3_fromeb4.wav
lokey=55
hikey=55
sw_previous=61
pitch_keycenter=57

<region>
sample=../Samples/vowel_transition/i/vowel_i_bb3_fromeb4.wav
lokey=56
hikey=56
sw_previous=61
pitch_keycenter=58

<region>
sample=../Samples/vowel_transition/i/vowel_i_b3_fromeb4.wav
lokey=57
hikey=57
sw_previous=61
pitch_keycenter=59

<region>
sample=../Samples/vowel_transition/i/vowel_i_c4_fromeb4.wav
lokey=58
hikey=58
sw_previous=61

<region>
sample=../Samples/vowel_transition/i/vowel_i_db4_fromeb4.wav
lokey=59
hikey=59
sw_previous=61
pitch_keycenter=61

<region>
sample=../Samples/vowel_transition/i/vowel_i_d4_fromeb4.wav
lokey=60
hikey=60
sw_previous=61
pitch_keycenter=62

<region>
sample=../Samples/vowel_transition/i/vowel_i_e4_fromeb4.wav
lokey=62
hikey=62
sw_previous=61
pitch_keycenter=64

<region>
sample=../Samples/vowel_transition/i/vowel_i_f4_fromeb4.wav
lokey=63
hikey=63
sw_previous=61
pitch_keycenter=65

<region>
sample=../Samples/vowel_transition/i/vowel_i_gb4_fromeb4.wav
lokey=64
hikey=64
sw_previous=61
pitch_keycenter=66

<region>
sample=../Samples/vowel_transition/i/vowel_i_g4_fromeb4.wav
lokey=65
hikey=65
sw_previous=61
pitch_keycenter=67

<region>
sample=../Samples/vowel_transition/i/vowel_i_ab4_fromeb4.wav
lokey=66
hikey=66
sw_previous=61
pitch_keycenter=68

<region>
sample=../Samples/vowel_transition/i/vowel_i_a4_fromeb4.wav
lokey=67
hikey=67
sw_previous=61
pitch_keycenter=69

<region>
sample=../Samples/vowel_transition/i/vowel_i_bb4_fromeb4.wav
lokey=68
hikey=68
sw_previous=61
pitch_keycenter=70

<region>
sample=../Samples/vowel_transition/i/vowel_i_ab4_fromc4.wav
lokey=69
hikey=69
sw_previous=61
pitch_keycenter=68

<region>
sample=../Samples/vowel_transition/i/vowel_i_a4_fromc4.wav
lokey=70
hikey=70
sw_previous=61
pitch_keycenter=69

<region>
sample=../Samples/vowel_transition/i/vowel_i_e3_frome4.wav
lokey=50
hikey=50
sw_previous=62
pitch_keycenter=52

<region>
sample=../Samples/vowel_transition/i/vowel_i_f3_frome4.wav
lokey=51
hikey=51
sw_previous=62
pitch_keycenter=53

<region>
sample=../Samples/vowel_transition/i/vowel_i_gb3_frome4.wav
lokey=52
hikey=52
sw_previous=62
pitch_keycenter=54

<region>
sample=../Samples/vowel_transition/i/vowel_i_g3_frome4.wav
lokey=53
hikey=53
sw_previous=62
pitch_keycenter=55

<region>
sample=../Samples/vowel_transition/i/vowel_i_ab3_frome4.wav
lokey=54
hikey=54
sw_previous=62
pitch_keycenter=56

<region>
sample=../Samples/vowel_transition/i/vowel_i_a3_frome4.wav
lokey=55
hikey=55
sw_previous=62
pitch_keycenter=57

<region>
sample=../Samples/vowel_transition/i/vowel_i_bb3_frome4.wav
lokey=56
hikey=56
sw_previous=62
pitch_keycenter=58

<region>
sample=../Samples/vowel_transition/i/vowel_i_b3_frome4.wav
lokey=57
hikey=57
sw_previous=62
pitch_keycenter=59

<region>
sample=../Samples/vowel_transition/i/vowel_i_c4_frome4.wav
lokey=58
hikey=58
sw_previous=62

<region>
sample=../Samples/vowel_transition/i/vowel_i_db4_frome4.wav
lokey=59
hikey=59
sw_previous=62
pitch_keycenter=61

<region>
sample=../Samples/vowel_transition/i/vowel_i_d4_frome4.wav
lokey=60
hikey=60
sw_previous=62
pitch_keycenter=62

<region>
sample=../Samples/vowel_transition/i/vowel_i_eb4_frome4.wav
lokey=61
hikey=61
sw_previous=62
pitch_keycenter=63

<region>
sample=../Samples/vowel_transition/i/vowel_i_f4_frome4.wav
lokey=63
hikey=63
sw_previous=62
pitch_keycenter=65

<region>
sample=../Samples/vowel_transition/i/vowel_i_gb4_frome4.wav
lokey=64
hikey=64
sw_previous=62
pitch_keycenter=66

<region>
sample=../Samples/vowel_transition/i/vowel_i_g4_frome4.wav
lokey=65
hikey=65
sw_previous=62
pitch_keycenter=67

<region>
sample=../Samples/vowel_transition/i/vowel_i_ab4_frome4.wav
lokey=66
hikey=66
sw_previous=62
pitch_keycenter=68

<region>
sample=../Samples/vowel_transition/i/vowel_i_a4_frome4.wav
lokey=67
hikey=67
sw_previous=62
pitch_keycenter=69

<region>
sample=../Samples/vowel_transition/i/vowel_i_bb4_frome4.wav
lokey=68
hikey=68
sw_previous=62
pitch_keycenter=70

<region>
sample=../Samples/vowel_transition/i/vowel_i_ab4_fromdb4.wav
lokey=69
hikey=69
sw_previous=62
pitch_keycenter=68

<region>
sample=../Samples/vowel_transition/i/vowel_i_a4_fromdb4.wav
lokey=70
hikey=70
sw_previous=62
pitch_keycenter=69

<region>
sample=../Samples/vowel_transition/i/vowel_i_e3_frome4.wav
lokey=50
hikey=50
sw_previous=63
pitch_keycenter=52

<region>
sample=../Samples/vowel_transition/i/vowel_i_f3_fromf4.wav
lokey=51
hikey=51
sw_previous=63
pitch_keycenter=53

<region>
sample=../Samples/vowel_transition/i/vowel_i_gb3_fromf4.wav
lokey=52
hikey=52
sw_previous=63
pitch_keycenter=54

<region>
sample=../Samples/vowel_transition/i/vowel_i_g3_fromf4.wav
lokey=53
hikey=53
sw_previous=63
pitch_keycenter=55

<region>
sample=../Samples/vowel_transition/i/vowel_i_ab3_fromf4.wav
lokey=54
hikey=54
sw_previous=63
pitch_keycenter=56

<region>
sample=../Samples/vowel_transition/i/vowel_i_a3_fromf4.wav
lokey=55
hikey=55
sw_previous=63
pitch_keycenter=57

<region>
sample=../Samples/vowel_transition/i/vowel_i_bb3_fromf4.wav
lokey=56
hikey=56
sw_previous=63
pitch_keycenter=58

<region>
sample=../Samples/vowel_transition/i/vowel_i_b3_fromf4.wav
lokey=57
hikey=57
sw_previous=63
pitch_keycenter=59

<region>
sample=../Samples/vowel_transition/i/vowel_i_c4_fromf4.wav
lokey=58
hikey=58
sw_previous=63

<region>
sample=../Samples/vowel_transition/i/vowel_i_db4_fromf4.wav
lokey=59
hikey=59
sw_previous=63
pitch_keycenter=61

<region>
sample=../Samples/vowel_transition/i/vowel_i_d4_fromf4.wav
lokey=60
hikey=60
sw_previous=63
pitch_keycenter=62

<region>
sample=../Samples/vowel_transition/i/vowel_i_eb4_fromf4.wav
lokey=61
hikey=61
sw_previous=63
pitch_keycenter=63

<region>
sample=../Samples/vowel_transition/i/vowel_i_e4_fromf4.wav
lokey=62
hikey=62
sw_previous=63
pitch_keycenter=64

<region>
sample=../Samples/vowel_transition/i/vowel_i_gb4_fromf4.wav
lokey=64
hikey=64
sw_previous=63
pitch_keycenter=66

<region>
sample=../Samples/vowel_transition/i/vowel_i_g4_fromf4.wav
lokey=65
hikey=65
sw_previous=63
pitch_keycenter=67

<region>
sample=../Samples/vowel_transition/i/vowel_i_ab4_fromf4.wav
lokey=66
hikey=66
sw_previous=63
pitch_keycenter=68

<region>
sample=../Samples/vowel_transition/i/vowel_i_a4_fromf4.wav
lokey=67
hikey=67
sw_previous=63
pitch_keycenter=69

<region>
sample=../Samples/vowel_transition/i/vowel_i_bb4_fromf4.wav
lokey=68
hikey=68
sw_previous=63
pitch_keycenter=70

<region>
sample=../Samples/vowel_transition/i/vowel_i_ab4_fromd4.wav
lokey=69
hikey=69
sw_previous=63
pitch_keycenter=68

<region>
sample=../Samples/vowel_transition/i/vowel_i_a4_fromd4.wav
lokey=70
hikey=70
sw_previous=63
pitch_keycenter=69

<region>
sample=../Samples/vowel_transition/i/vowel_i_e3_frome4.wav
lokey=50
hikey=50
sw_previous=64
pitch_keycenter=52

<region>
sample=../Samples/vowel_transition/i/vowel_i_f3_fromf4.wav
lokey=51
hikey=51
sw_previous=64
pitch_keycenter=53

<region>
sample=../Samples/vowel_transition/i/vowel_i_gb3_fromgb4.wav
lokey=52
hikey=52
sw_previous=64
pitch_keycenter=54

<region>
sample=../Samples/vowel_transition/i/vowel_i_g3_fromgb4.wav
lokey=53
hikey=53
sw_previous=64
pitch_keycenter=55

<region>
sample=../Samples/vowel_transition/i/vowel_i_ab3_fromgb4.wav
lokey=54
hikey=54
sw_previous=64
pitch_keycenter=56

<region>
sample=../Samples/vowel_transition/i/vowel_i_a3_fromgb4.wav
lokey=55
hikey=55
sw_previous=64
pitch_keycenter=57

<region>
sample=../Samples/vowel_transition/i/vowel_i_bb3_fromgb4.wav
lokey=56
hikey=56
sw_previous=64
pitch_keycenter=58

<region>
sample=../Samples/vowel_transition/i/vowel_i_b3_fromgb4.wav
lokey=57
hikey=57
sw_previous=64
pitch_keycenter=59

<region>
sample=../Samples/vowel_transition/i/vowel_i_c4_fromgb4.wav
lokey=58
hikey=58
sw_previous=64

<region>
sample=../Samples/vowel_transition/i/vowel_i_db4_fromgb4.wav
lokey=59
hikey=59
sw_previous=64
pitch_keycenter=61

<region>
sample=../Samples/vowel_transition/i/vowel_i_d4_fromgb4.wav
lokey=60
hikey=60
sw_previous=64
pitch_keycenter=62

<region>
sample=../Samples/vowel_transition/i/vowel_i_eb4_fromgb4.wav
lokey=61
hikey=61
sw_previous=64
pitch_keycenter=63

<region>
sample=../Samples/vowel_transition/i/vowel_i_e4_fromgb4.wav
lokey=62
hikey=62
sw_previous=64
pitch_keycenter=64

<region>
sample=../Samples/vowel_transition/i/vowel_i_f4_fromgb4.wav
lokey=63
hikey=63
sw_previous=64
pitch_keycenter=65

<region>
sample=../Samples/vowel_transition/i/vowel_i_g4_fromgb4.wav
lokey=65
hikey=65
sw_previous=64
pitch_keycenter=67

<region>
sample=../Samples/vowel_transition/i/vowel_i_ab4_fromgb4.wav
lokey=66
hikey=66
sw_previous=64
pitch_keycenter=68

<region>
sample=../Samples/vowel_transition/i/vowel_i_a4_fromgb4.wav
lokey=67
hikey=67
sw_previous=64
pitch_keycenter=69

<region>
sample=../Samples/vowel_transition/i/vowel_i_bb4_fromgb4.wav
lokey=68
hikey=68
sw_previous=64
pitch_keycenter=70

<region>
sample=../Samples/vowel_transition/i/vowel_i_ab4_fromeb4.wav
lokey=69
hikey=69
sw_previous=64
pitch_keycenter=68

<region>
sample=../Samples/vowel_transition/i/vowel_i_a4_fromeb4.wav
lokey=70
hikey=70
sw_previous=64
pitch_keycenter=69

<region>
sample=../Samples/vowel_transition/i/vowel_i_e3_frome4.wav
lokey=50
hikey=50
sw_previous=65
pitch_keycenter=52

<region>
sample=../Samples/vowel_transition/i/vowel_i_f3_fromf4.wav
lokey=51
hikey=51
sw_previous=65
pitch_keycenter=53

<region>
sample=../Samples/vowel_transition/i/vowel_i_gb3_fromgb4.wav
lokey=52
hikey=52
sw_previous=65
pitch_keycenter=54

<region>
sample=../Samples/vowel_transition/i/vowel_i_g3_fromg4.wav
lokey=53
hikey=53
sw_previous=65
pitch_keycenter=55

<region>
sample=../Samples/vowel_transition/i/vowel_i_ab3_fromg4.wav
lokey=54
hikey=54
sw_previous=65
pitch_keycenter=56

<region>
sample=../Samples/vowel_transition/i/vowel_i_a3_fromg4.wav
lokey=55
hikey=55
sw_previous=65
pitch_keycenter=57

<region>
sample=../Samples/vowel_transition/i/vowel_i_bb3_fromg4.wav
lokey=56
hikey=56
sw_previous=65
pitch_keycenter=58

<region>
sample=../Samples/vowel_transition/i/vowel_i_b3_fromg4.wav
lokey=57
hikey=57
sw_previous=65
pitch_keycenter=59

<region>
sample=../Samples/vowel_transition/i/vowel_i_c4_fromg4.wav
lokey=58
hikey=58
sw_previous=65

<region>
sample=../Samples/vowel_transition/i/vowel_i_db4_fromg4.wav
lokey=59
hikey=59
sw_previous=65
pitch_keycenter=61

<region>
sample=../Samples/vowel_transition/i/vowel_i_d4_fromg4.wav
lokey=60
hikey=60
sw_previous=65
pitch_keycenter=62

<region>
sample=../Samples/vowel_transition/i/vowel_i_eb4_fromg4.wav
lokey=61
hikey=61
sw_previous=65
pitch_keycenter=63

<region>
sample=../Samples/vowel_transition/i/vowel_i_e4_fromg4.wav
lokey=62
hikey=62
sw_previous=65
pitch_keycenter=64

<region>
sample=../Samples/vowel_transition/i/vowel_i_f4_fromg4.wav
lokey=63
hikey=63
sw_previous=65
pitch_keycenter=65

<region>
sample=../Samples/vowel_transition/i/vowel_i_gb4_fromg4.wav
lokey=64
hikey=64
sw_previous=65
pitch_keycenter=66

<region>
sample=../Samples/vowel_transition/i/vowel_i_ab4_fromg4.wav
lokey=66
hikey=66
sw_previous=65
pitch_keycenter=68

<region>
sample=../Samples/vowel_transition/i/vowel_i_a4_fromg4.wav
lokey=67
hikey=67
sw_previous=65
pitch_keycenter=69

<region>
sample=../Samples/vowel_transition/i/vowel_i_bb4_fromg4.wav
lokey=68
hikey=68
sw_previous=65
pitch_keycenter=70

<region>
sample=../Samples/vowel_transition/i/vowel_i_ab4_frome4.wav
lokey=69
hikey=69
sw_previous=65
pitch_keycenter=68

<region>
sample=../Samples/vowel_transition/i/vowel_i_a4_frome4.wav
lokey=70
hikey=70
sw_previous=65
pitch_keycenter=69

<region>
sample=../Samples/vowel_transition/i/vowel_i_e3_frome4.wav
lokey=50
hikey=50
sw_previous=66
pitch_keycenter=52

<region>
sample=../Samples/vowel_transition/i/vowel_i_f3_fromf4.wav
lokey=51
hikey=51
sw_previous=66
pitch_keycenter=53

<region>
sample=../Samples/vowel_transition/i/vowel_i_gb3_fromgb4.wav
lokey=52
hikey=52
sw_previous=66
pitch_keycenter=54

<region>
sample=../Samples/vowel_transition/i/vowel_i_g3_fromg4.wav
lokey=53
hikey=53
sw_previous=66
pitch_keycenter=55

<region>
sample=../Samples/vowel_transition/i/vowel_i_ab3_fromab4.wav
lokey=54
hikey=54
sw_previous=66
pitch_keycenter=56

<region>
sample=../Samples/vowel_transition/i/vowel_i_a3_fromab4.wav
lokey=55
hikey=55
sw_previous=66
pitch_keycenter=57

<region>
sample=../Samples/vowel_transition/i/vowel_i_bb3_fromab4.wav
lokey=56
hikey=56
sw_previous=66
pitch_keycenter=58

<region>
sample=../Samples/vowel_transition/i/vowel_i_b3_fromab4.wav
lokey=57
hikey=57
sw_previous=66
pitch_keycenter=59

<region>
sample=../Samples/vowel_transition/i/vowel_i_c4_fromab4.wav
lokey=58
hikey=58
sw_previous=66

<region>
sample=../Samples/vowel_transition/i/vowel_i_db4_fromab4.wav
lokey=59
hikey=59
sw_previous=66
pitch_keycenter=61

<region>
sample=../Samples/vowel_transition/i/vowel_i_d4_fromab4.wav
lokey=60
hikey=60
sw_previous=66
pitch_keycenter=62

<region>
sample=../Samples/vowel_transition/i/vowel_i_eb4_fromab4.wav
lokey=61
hikey=61
sw_previous=66
pitch_keycenter=63

<region>
sample=../Samples/vowel_transition/i/vowel_i_e4_fromab4.wav
lokey=62
hikey=62
sw_previous=66
pitch_keycenter=64

<region>
sample=../Samples/vowel_transition/i/vowel_i_f4_fromab4.wav
lokey=63
hikey=63
sw_previous=66
pitch_keycenter=65

<region>
sample=../Samples/vowel_transition/i/vowel_i_gb4_fromab4.wav
lokey=64
hikey=64
sw_previous=66
pitch_keycenter=66

<region>
sample=../Samples/vowel_transition/i/vowel_i_g4_fromab4.wav
lokey=65
hikey=65
sw_previous=66
pitch_keycenter=67

<region>
sample=../Samples/vowel_transition/i/vowel_i_a4_fromab4.wav
lokey=67
hikey=67
sw_previous=66
pitch_keycenter=69

<region>
sample=../Samples/vowel_transition/i/vowel_i_bb4_fromab4.wav
lokey=68
hikey=68
sw_previous=66
pitch_keycenter=70

<region>
sample=../Samples/vowel_transition/i/vowel_i_ab4_fromf4.wav
lokey=69
hikey=69
sw_previous=66
pitch_keycenter=68

<region>
sample=../Samples/vowel_transition/i/vowel_i_a4_fromf4.wav
lokey=70
hikey=70
sw_previous=66
pitch_keycenter=69

<region>
sample=../Samples/vowel_transition/i/vowel_i_e3_frome4.wav
lokey=50
hikey=50
sw_previous=67
pitch_keycenter=52

<region>
sample=../Samples/vowel_transition/i/vowel_i_f3_fromf4.wav
lokey=51
hikey=51
sw_previous=67
pitch_keycenter=53

<region>
sample=../Samples/vowel_transition/i/vowel_i_gb3_fromgb4.wav
lokey=52
hikey=52
sw_previous=67
pitch_keycenter=54

<region>
sample=../Samples/vowel_transition/i/vowel_i_g3_fromg4.wav
lokey=53
hikey=53
sw_previous=67
pitch_keycenter=55

<region>
sample=../Samples/vowel_transition/i/vowel_i_ab3_fromab4.wav
lokey=54
hikey=54
sw_previous=67
pitch_keycenter=56

<region>
sample=../Samples/vowel_transition/i/vowel_i_a3_froma4.wav
lokey=55
hikey=55
sw_previous=67
pitch_keycenter=57

<region>
sample=../Samples/vowel_transition/i/vowel_i_bb3_froma4.wav
lokey=56
hikey=56
sw_previous=67
pitch_keycenter=58

<region>
sample=../Samples/vowel_transition/i/vowel_i_b3_froma4.wav
lokey=57
hikey=57
sw_previous=67
pitch_keycenter=59

<region>
sample=../Samples/vowel_transition/i/vowel_i_c4_froma4.wav
lokey=58
hikey=58
sw_previous=67

<region>
sample=../Samples/vowel_transition/i/vowel_i_db4_froma4.wav
lokey=59
hikey=59
sw_previous=67
pitch_keycenter=61

<region>
sample=../Samples/vowel_transition/i/vowel_i_d4_froma4.wav
lokey=60
hikey=60
sw_previous=67
pitch_keycenter=62

<region>
sample=../Samples/vowel_transition/i/vowel_i_eb4_froma4.wav
lokey=61
hikey=61
sw_previous=67
pitch_keycenter=63

<region>
sample=../Samples/vowel_transition/i/vowel_i_e4_froma4.wav
lokey=62
hikey=62
sw_previous=67
pitch_keycenter=64

<region>
sample=../Samples/vowel_transition/i/vowel_i_f4_froma4.wav
lokey=63
hikey=63
sw_previous=67
pitch_keycenter=65

<region>
sample=../Samples/vowel_transition/i/vowel_i_gb4_froma4.wav
lokey=64
hikey=64
sw_previous=67
pitch_keycenter=66

<region>
sample=../Samples/vowel_transition/i/vowel_i_g4_froma4.wav
lokey=65
hikey=65
sw_previous=67
pitch_keycenter=67

<region>
sample=../Samples/vowel_transition/i/vowel_i_ab4_froma4.wav
lokey=66
hikey=66
sw_previous=67
pitch_keycenter=68

<region>
sample=../Samples/vowel_transition/i/vowel_i_bb4_froma4.wav
lokey=68
hikey=68
sw_previous=67
pitch_keycenter=70

<region>
sample=../Samples/vowel_transition/i/vowel_i_ab4_fromgb4.wav
lokey=69
hikey=69
sw_previous=67
pitch_keycenter=68

<region>
sample=../Samples/vowel_transition/i/vowel_i_a4_fromgb4.wav
lokey=70
hikey=70
sw_previous=67
pitch_keycenter=69

<region>
sample=../Samples/vowel_transition/i/vowel_i_e3_frome4.wav
lokey=50
hikey=50
sw_previous=68
pitch_keycenter=52

<region>
sample=../Samples/vowel_transition/i/vowel_i_f3_fromf4.wav
lokey=51
hikey=51
sw_previous=68
pitch_keycenter=53

<region>
sample=../Samples/vowel_transition/i/vowel_i_gb3_fromgb4.wav
lokey=52
hikey=52
sw_previous=68
pitch_keycenter=54

<region>
sample=../Samples/vowel_transition/i/vowel_i_g3_fromg4.wav
lokey=53
hikey=53
sw_previous=68
pitch_keycenter=55

<region>
sample=../Samples/vowel_transition/i/vowel_i_ab3_fromab4.wav
lokey=54
hikey=54
sw_previous=68
pitch_keycenter=56

<region>
sample=../Samples/vowel_transition/i/vowel_i_a3_froma4.wav
lokey=55
hikey=55
sw_previous=68
pitch_keycenter=57

<region>
sample=../Samples/vowel_transition/i/vowel_i_bb3_frombb4.wav
lokey=56
hikey=56
sw_previous=68
pitch_keycenter=58

<region>
sample=../Samples/vowel_transition/i/vowel_i_b3_frombb4.wav
lokey=57
hikey=57
sw_previous=68
pitch_keycenter=59

<region>
sample=../Samples/vowel_transition/i/vowel_i_c4_frombb4.wav
lokey=58
hikey=58
sw_previous=68

<region>
sample=../Samples/vowel_transition/i/vowel_i_db4_frombb4.wav
lokey=59
hikey=59
sw_previous=68
pitch_keycenter=61

<region>
sample=../Samples/vowel_transition/i/vowel_i_d4_frombb4.wav
lokey=60
hikey=60
sw_previous=68
pitch_keycenter=62

<region>
sample=../Samples/vowel_transition/i/vowel_i_eb4_frombb4.wav
lokey=61
hikey=61
sw_previous=68
pitch_keycenter=63

<region>
sample=../Samples/vowel_transition/i/vowel_i_e4_frombb4.wav
lokey=62
hikey=62
sw_previous=68
pitch_keycenter=64

<region>
sample=../Samples/vowel_transition/i/vowel_i_f4_frombb4.wav
lokey=63
hikey=63
sw_previous=68
pitch_keycenter=65

<region>
sample=../Samples/vowel_transition/i/vowel_i_gb4_frombb4.wav
lokey=64
hikey=64
sw_previous=68
pitch_keycenter=66

<region>
sample=../Samples/vowel_transition/i/vowel_i_g4_frombb4.wav
lokey=65
hikey=65
sw_previous=68
pitch_keycenter=67

<region>
sample=../Samples/vowel_transition/i/vowel_i_ab4_frombb4.wav
lokey=66
hikey=66
sw_previous=68
pitch_keycenter=68

<region>
sample=../Samples/vowel_transition/i/vowel_i_a4_frombb4.wav
lokey=67
hikey=67
sw_previous=68
pitch_keycenter=69

<region>
sample=../Samples/vowel_transition/i/vowel_i_ab4_fromg4.wav
lokey=69
hikey=69
sw_previous=68
pitch_keycenter=68

<region>
sample=../Samples/vowel_transition/i/vowel_i_a4_fromg4.wav
lokey=70
hikey=70
sw_previous=68
pitch_keycenter=69

<region>
sample=../Samples/vowel_transition/i/vowel_i_e3_frome4.wav
lokey=50
hikey=50
sw_previous=69
pitch_keycenter=52

<region>
sample=../Samples/vowel_transition/i/vowel_i_d3_fromd4.wav
lokey=51
hikey=51
sw_previous=69
pitch_keycenter=50

<region>
sample=../Samples/vowel_transition/i/vowel_i_eb3_fromeb4.wav
lokey=52
hikey=52
sw_previous=69
pitch_keycenter=51

<region>
sample=../Samples/vowel_transition/i/vowel_i_e3_frome4.wav
lokey=53
hikey=53
sw_previous=69
pitch_keycenter=52

<region>
sample=../Samples/vowel_transition/i/vowel_i_f3_fromf4.wav
lokey=54
hikey=54
sw_previous=69
pitch_keycenter=53

<region>
sample=../Samples/vowel_transition/i/vowel_i_gb3_fromgb4.wav
lokey=55
hikey=55
sw_previous=69
pitch_keycenter=54

<region>
sample=../Samples/vowel_transition/i/vowel_i_g3_fromg4.wav
lokey=56
hikey=56
sw_previous=69
pitch_keycenter=55

<region>
sample=../Samples/vowel_transition/i/vowel_i_ab3_fromab4.wav
lokey=57
hikey=57
sw_previous=69
pitch_keycenter=56

<region>
sample=../Samples/vowel_transition/i/vowel_i_a3_fromab4.wav
lokey=58
hikey=58
sw_previous=69
pitch_keycenter=57

<region>
sample=../Samples/vowel_transition/i/vowel_i_bb3_fromab4.wav
lokey=59
hikey=59
sw_previous=69
pitch_keycenter=58

<region>
sample=../Samples/vowel_transition/i/vowel_i_b3_fromab4.wav
lokey=60
hikey=60
sw_previous=69
pitch_keycenter=59

<region>
sample=../Samples/vowel_transition/i/vowel_i_c4_fromab4.wav
lokey=61
hikey=61
sw_previous=69

<region>
sample=../Samples/vowel_transition/i/vowel_i_db4_fromab4.wav
lokey=62
hikey=62
sw_previous=69
pitch_keycenter=61

<region>
sample=../Samples/vowel_transition/i/vowel_i_d4_fromab4.wav
lokey=63
hikey=63
sw_previous=69
pitch_keycenter=62

<region>
sample=../Samples/vowel_transition/i/vowel_i_eb4_fromab4.wav
lokey=64
hikey=64
sw_previous=69
pitch_keycenter=63

<region>
sample=../Samples/vowel_transition/i/vowel_i_e4_fromab4.wav
lokey=65
hikey=65
sw_previous=69
pitch_keycenter=64

<region>
sample=../Samples/vowel_transition/i/vowel_i_f4_fromab4.wav
lokey=66
hikey=66
sw_previous=69
pitch_keycenter=65

<region>
sample=../Samples/vowel_transition/i/vowel_i_gb4_fromab4.wav
lokey=67
hikey=67
sw_previous=69
pitch_keycenter=66

<region>
sample=../Samples/vowel_transition/i/vowel_i_g4_fromab4.wav
lokey=68
hikey=68
sw_previous=69
pitch_keycenter=67

<region>
sample=../Samples/vowel_transition/i/vowel_i_a4_fromab4.wav
lokey=70
hikey=70
sw_previous=69
pitch_keycenter=69

<region>
sample=../Samples/vowel_transition/i/vowel_i_e3_frome4.wav
lokey=50
hikey=50
sw_previous=70
pitch_keycenter=52

<region>
sample=../Samples/vowel_transition/i/vowel_i_d3_fromd4.wav
lokey=51
hikey=51
sw_previous=70
pitch_keycenter=50

<region>
sample=../Samples/vowel_transition/i/vowel_i_eb3_fromeb4.wav
lokey=52
hikey=52
sw_previous=70
pitch_keycenter=51

<region>
sample=../Samples/vowel_transition/i/vowel_i_e3_frome4.wav
lokey=53
hikey=53
sw_previous=70
pitch_keycenter=52

<region>
sample=../Samples/vowel_transition/i/vowel_i_f3_fromf4.wav
lokey=54
hikey=54
sw_previous=70
pitch_keycenter=53

<region>
sample=../Samples/vowel_transition/i/vowel_i_gb3_fromgb4.wav
lokey=55
hikey=55
sw_previous=70
pitch_keycenter=54

<region>
sample=../Samples/vowel_transition/i/vowel_i_g3_fromg4.wav
lokey=56
hikey=56
sw_previous=70
pitch_keycenter=55

<region>
sample=../Samples/vowel_transition/i/vowel_i_ab3_fromab4.wav
lokey=57
hikey=57
sw_previous=70
pitch_keycenter=56

<region>
sample=../Samples/vowel_transition/i/vowel_i_a3_froma4.wav
lokey=58
hikey=58
sw_previous=70
pitch_keycenter=57

<region>
sample=../Samples/vowel_transition/i/vowel_i_bb3_froma4.wav
lokey=59
hikey=59
sw_previous=70
pitch_keycenter=58

<region>
sample=../Samples/vowel_transition/i/vowel_i_b3_froma4.wav
lokey=60
hikey=60
sw_previous=70
pitch_keycenter=59

<region>
sample=../Samples/vowel_transition/i/vowel_i_c4_froma4.wav
lokey=61
hikey=61
sw_previous=70

<region>
sample=../Samples/vowel_transition/i/vowel_i_db4_froma4.wav
lokey=62
hikey=62
sw_previous=70
pitch_keycenter=61

<region>
sample=../Samples/vowel_transition/i/vowel_i_d4_froma4.wav
lokey=63
hikey=63
sw_previous=70
pitch_keycenter=62

<region>
sample=../Samples/vowel_transition/i/vowel_i_eb4_froma4.wav
lokey=64
hikey=64
sw_previous=70
pitch_keycenter=63

<region>
sample=../Samples/vowel_transition/i/vowel_i_e4_froma4.wav
lokey=65
hikey=65
sw_previous=70
pitch_keycenter=64

<region>
sample=../Samples/vowel_transition/i/vowel_i_f4_froma4.wav
lokey=66
hikey=66
sw_previous=70
pitch_keycenter=65

<region>
sample=../Samples/vowel_transition/i/vowel_i_gb4_froma4.wav
lokey=67
hikey=67
sw_previous=70
pitch_keycenter=66

<region>
sample=../Samples/vowel_transition/i/vowel_i_g4_froma4.wav
lokey=68
hikey=68
sw_previous=70
pitch_keycenter=67

<region>
sample=../Samples/vowel_transition/i/vowel_i_ab4_froma4.wav
lokey=69
hikey=69
sw_previous=70
pitch_keycenter=68
